<svg width="15" height="16" viewBox="0 0 168 178" fill="none" xmlns="http://www.w3.org/2000/svg">
<path d="M156.917 156.5H11.0834C5.33045 156.5 0.666748 161.164 0.666748 166.917C0.666748 172.67 5.33045 177.333 11.0834 177.333H156.917C162.67 177.333 167.333 172.67 167.333 166.917C167.333 161.164 162.67 156.5 156.917 156.5Z" fill="white"/>
<path d="M0.666748 146.083L0.666748 166.917C0.666748 172.67 5.33045 177.333 11.0834 177.333C16.8364 177.333 21.5001 172.67 21.5001 166.917L21.5001 146.083C21.5001 140.33 16.8364 135.667 11.0834 135.667C5.33045 135.667 0.666748 140.33 0.666748 146.083Z" fill="white"/>
<path d="M146.5 146.083V166.917C146.5 172.67 151.164 177.333 156.917 177.333C162.67 177.333 167.333 172.67 167.333 166.917V146.083C167.333 140.33 162.67 135.667 156.917 135.667C151.164 135.667 146.5 140.33 146.5 146.083Z" fill="white"/>
<path d="M83.9999 125.25C81.8404 125.266 79.7291 124.611 77.9583 123.375L36.2916 94C34.0459 92.4069 32.5223 89.9895 32.0538 87.2763C31.5853 84.5631 32.2101 81.7747 33.7916 79.5208C34.581 78.3942 35.5858 77.4352 36.7479 76.699C37.91 75.9628 39.2064 75.4642 40.5623 75.2317C41.9181 74.9993 43.3066 75.0377 44.6476 75.3448C45.9885 75.6519 47.2553 76.2215 48.3749 77.0208L83.9999 101.917L119.417 75.25C121.627 73.5924 124.405 72.8807 127.14 73.2714C129.875 73.6621 132.342 75.1232 134 77.3333C135.658 79.5435 136.369 82.3216 135.979 85.0565C135.588 87.7914 134.127 90.2591 131.917 91.9167L90.2499 123.167C88.4469 124.519 86.2538 125.25 83.9999 125.25Z" fill="white"/>
<path d="M83.9999 104.417C81.2372 104.417 78.5877 103.319 76.6342 101.366C74.6807 99.4122 73.5833 96.7627 73.5833 94V10.6667C73.5833 7.90399 74.6807 5.25447 76.6342 3.30097C78.5877 1.34747 81.2372 0.25 83.9999 0.25C86.7626 0.25 89.4121 1.34747 91.3656 3.30097C93.3191 5.25447 94.4166 7.90399 94.4166 10.6667V94C94.4166 96.7627 93.3191 99.4122 91.3656 101.366C89.4121 103.319 86.7626 104.417 83.9999 104.417Z" fill="white"/>
</svg>
