<svg width="86" height="80" viewBox="0 0 86 80" fill="none" xmlns="http://www.w3.org/2000/svg">
<path d="M17.6704 1.18241C17.1497 -0.312512 15.0333 -0.312512 14.4958 1.18241L5.00555 30.5433H27.1774C27.1606 30.5433 17.6704 1.18241 17.6704 1.18241V1.18241ZM0.151258 45.3246C-0.285461 46.6683 0.201649 48.1633 1.34384 49.0199L42.9833 79.9262L4.98876 30.5433L0.151258 45.3246ZM27.1606 30.5433L43.0001 79.9262L58.8395 30.5433H27.1606ZM85.8489 45.3246L81.0114 30.5433L43.0001 79.9262L84.6395 49.0199C85.7985 48.1633 86.2688 46.6683 85.8489 45.3246V45.3246ZM71.5044 1.18241C70.9837 -0.312512 68.8673 -0.312512 68.3298 1.18241L58.8227 30.5433H80.9946L71.5044 1.18241Z" fill="black"/>
</svg>
