<svg width="78" height="78" viewBox="0 0 78 78" fill="none" xmlns="http://www.w3.org/2000/svg">
<path fill-rule="evenodd" clip-rule="evenodd" d="M23.1275 0.731C27.233 0.542 28.542 0.5 39 0.5C49.458 0.5 50.767 0.5455 54.869 0.731C58.971 0.9165 61.771 1.571 64.221 2.5195C66.7865 3.489 69.114 5.0045 71.039 6.9645C72.999 8.886 74.511 11.21 75.477 13.779C76.429 16.229 77.08 19.029 77.269 23.124C77.458 27.2365 77.5 28.5455 77.5 39C77.5 49.458 77.4545 50.767 77.269 54.8725C77.0835 58.9675 76.429 61.7675 75.477 64.2175C74.511 66.7868 72.9965 69.1147 71.039 71.039C69.114 72.999 66.7865 74.511 64.221 75.477C61.771 76.429 58.971 77.08 54.876 77.269C50.767 77.458 49.458 77.5 39 77.5C28.542 77.5 27.233 77.4545 23.1275 77.269C19.0325 77.0835 16.2325 76.429 13.7825 75.477C11.2132 74.5109 8.88537 72.9964 6.961 71.039C5.00233 69.1163 3.4866 66.7896 2.5195 64.221C1.571 61.771 0.92 58.971 0.731 54.876C0.542 50.7635 0.5 49.4545 0.5 39C0.5 28.542 0.5455 27.233 0.731 23.131C0.9165 19.029 1.571 16.229 2.5195 13.779C3.48803 11.2103 5.00492 8.8836 6.9645 6.961C8.88614 5.00275 11.2117 3.48705 13.779 2.5195C16.229 1.571 19.029 0.92 23.124 0.731H23.1275ZM54.5575 7.661C50.4975 7.4755 49.2795 7.437 39 7.437C28.7205 7.437 27.5025 7.4755 23.4425 7.661C19.687 7.8325 17.65 8.459 16.292 8.9875C14.4965 9.6875 13.212 10.517 11.8645 11.8645C10.5872 13.1072 9.60413 14.62 8.9875 16.292C8.459 17.65 7.8325 19.687 7.661 23.4425C7.4755 27.5025 7.437 28.7205 7.437 39C7.437 49.2795 7.4755 50.4975 7.661 54.5575C7.8325 58.313 8.459 60.35 8.9875 61.708C9.6035 63.3775 10.587 64.893 11.8645 66.1355C13.107 67.413 14.6225 68.3965 16.292 69.0125C17.65 69.541 19.687 70.1675 23.4425 70.339C27.5025 70.5245 28.717 70.563 39 70.563C49.283 70.563 50.4975 70.5245 54.5575 70.339C58.313 70.1675 60.35 69.541 61.708 69.0125C63.5035 68.3125 64.788 67.483 66.1355 66.1355C67.413 64.893 68.3965 63.3775 69.0125 61.708C69.541 60.35 70.1675 58.313 70.339 54.5575C70.5245 50.4975 70.563 49.2795 70.563 39C70.563 28.7205 70.5245 27.5025 70.339 23.4425C70.1675 19.687 69.541 17.65 69.0125 16.292C68.3125 14.4965 67.483 13.212 66.1355 11.8645C64.8927 10.5872 63.38 9.60424 61.708 8.9875C60.35 8.459 58.313 7.8325 54.5575 7.661V7.661ZM34.0825 50.8685C36.8288 52.0117 39.8868 52.166 42.7343 51.305C45.5817 50.444 48.0419 48.6212 49.6946 46.1479C51.3474 43.6745 52.0902 40.704 51.7962 37.7439C51.5021 34.7837 50.1895 32.0174 48.0825 29.9175C46.7393 28.5752 45.1152 27.5473 43.3272 26.908C41.5391 26.2687 39.6315 26.0338 37.7417 26.2202C35.852 26.4065 34.027 27.0096 32.3983 27.986C30.7696 28.9623 29.3776 30.2876 28.3226 31.8665C27.2675 33.4454 26.5757 35.2385 26.2968 37.1169C26.0179 38.9952 26.159 40.912 26.7099 42.7293C27.2607 44.5466 28.2077 46.2191 29.4825 47.6265C30.7574 49.0339 32.3284 50.1411 34.0825 50.8685ZM25.007 25.007C26.8446 23.1694 29.0261 21.7118 31.427 20.7173C33.828 19.7228 36.4013 19.2109 39 19.2109C41.5987 19.2109 44.172 19.7228 46.573 20.7173C48.9739 21.7118 51.1554 23.1694 52.993 25.007C54.8306 26.8446 56.2882 29.0261 57.2827 31.427C58.2772 33.828 58.7891 36.4013 58.7891 39C58.7891 41.5987 58.2772 44.172 57.2827 46.573C56.2882 48.9739 54.8306 51.1554 52.993 52.993C49.2818 56.7042 44.2484 58.7891 39 58.7891C33.7516 58.7891 28.7182 56.7042 25.007 52.993C21.2958 49.2818 19.2109 44.2484 19.2109 39C19.2109 33.7516 21.2958 28.7182 25.007 25.007V25.007ZM63.178 22.158C63.6334 21.7284 63.9979 21.2119 64.2501 20.6389C64.5022 20.0659 64.6368 19.4482 64.646 18.8223C64.6551 18.1963 64.5385 17.5749 64.3032 16.9948C64.0679 16.4148 63.7185 15.8878 63.2759 15.4451C62.8332 15.0025 62.3062 14.6532 61.7262 14.4178C61.1461 14.1825 60.5247 14.0659 59.8987 14.075C59.2728 14.0842 58.6551 14.2188 58.0821 14.4709C57.5091 14.7231 56.9926 15.0876 56.563 15.543C55.7276 16.4286 55.2702 17.6049 55.288 18.8223C55.3057 20.0396 55.7972 21.2021 56.658 22.063C57.5189 22.9238 58.6814 23.4153 59.8987 23.433C61.1161 23.4508 62.2924 22.9934 63.178 22.158V22.158Z" fill="black"/>
</svg>
